<svg width="30" height="40" viewBox="0 0 30 40" fill="none" xmlns="http://www.w3.org/2000/svg">
<g clip-path="url(#clip0_93_3979)">
<path d="M19.2546 9.36641L3.03234 18.8168C2.3489 19.2149 1.94845 20.1054 1.98716 21.1404C2.02594 22.1756 2.4961 23.1467 3.21418 23.6748L8.88542 27.8458L13.5059 20.8234C13.7185 20.5003 14.1111 20.4994 14.3828 20.8214C14.6544 21.1435 14.7022 21.6665 14.4896 21.9897L9.86908 29.0121L13.6529 36.0516C14.132 36.9429 14.908 37.4493 15.6779 37.373C16.4494 37.2966 17.057 36.6516 17.2666 35.6937L22.249 12.9167C22.4759 11.8797 22.202 10.7437 21.5344 9.95215C20.8668 9.16057 19.9932 8.93605 19.2546 9.36641Z" fill="white"/>
</g>
<defs>
<clipPath id="clip0_93_3979">
<rect width="23.9072" height="26.0371" fill="white" transform="matrix(0.54966 -0.835388 0.64472 0.764419 0 19.9719)"/>
</clipPath>
</defs>
</svg>
