<svg width="28" height="38" viewBox="0 0 28 38" fill="none" xmlns="http://www.w3.org/2000/svg">
<path d="M18.4844 18.908L27.8852 26.8858V10.5933L18.4844 18.908Z" fill="#9092B0"/>
<path d="M0 10.5933V26.8858L9.40081 18.908L0 10.5933Z" fill="#9092B0"/>
<path d="M26.1424 5.84888H1.74282C0.873148 5.84888 0.182989 6.71919 0.0522766 7.83983L13.9426 20.1248L27.8329 7.83983C27.7022 6.71919 27.0121 5.84888 26.1424 5.84888Z" fill="#9092B0"/>
<path d="M16.8878 20.3212L14.4217 22.5016C14.2753 22.6303 14.1097 22.6935 13.9424 22.6935C13.7751 22.6935 13.6095 22.6303 13.4631 22.5016L10.997 20.3188L0.055542 29.6092C0.18974 30.7205 0.876414 31.5838 1.7426 31.5838H26.1422C27.0084 31.5838 27.695 30.7205 27.8292 29.6092L16.8878 20.3212Z" fill="#9092B0"/>
</svg>
